# xmcd
#
# Track frame offsets:
#	150
#	14656
#	36567
#	59121
#	86914
#	107558
#	132679
#	152925
#	175366
#	193544
#	213702
#	226479
#	251413
#
# Disc length: 3647 seconds
#
# Revision: 1
# Processed by: cddbd v1.5.1PL0 Copyright (c) Steve Scherf et al.
# Submitted via: audiograbber 1.81.03
#
DISCID=cb0e3d0d
DTITLE=Joe Moss - Monster Love
DYEAR=2003
DGENRE=
TTITLE0=Monster Love
TTITLE1=Love My Baby
TTITLE2=Mad, Mad, Mad
TTITLE3=Have You Ever Loved A Woman
TTITLE4=Oh Sandra '03
TTITLE5=Need Your Love
TTITLE6=Please Love Me
TTITLE7=Lost My World
TTITLE8=Life Is Funny
TTITLE9=So Scared
TTITLE10=King Swing
TTITLE11=Ain't Got No Money
TTITLE12=Train Tracks
EXTD=
EXTT0=
EXTT1=
EXTT2=
EXTT3=
EXTT4=
EXTT5=
EXTT6=
EXTT7=
EXTT8=
EXTT9=
EXTT10=
EXTT11=
EXTT12=
PLAYORDER=
